<svg width="36" height="37" viewBox="0 0 36 37" fill="none" xmlns="http://www.w3.org/2000/svg">
<path d="M13.5 4.625H7.5C6.70435 4.625 5.94129 4.94985 5.37868 5.52809C4.81607 6.10632 4.5 6.89058 4.5 7.70833V13.875M13.5 4.625H28.5C29.2956 4.625 30.0587 4.94985 30.6213 5.52809C31.1839 6.10632 31.5 6.89058 31.5 7.70833V13.875M13.5 4.625V32.375M4.5 13.875V29.2917C4.5 30.1094 4.81607 30.8937 5.37868 31.4719C5.94129 32.0501 6.70435 32.375 7.5 32.375H13.5M4.5 13.875H31.5M31.5 13.875V29.2917C31.5 30.1094 31.1839 30.8937 30.6213 31.4719C30.0587 32.0501 29.2956 32.375 28.5 32.375H13.5" stroke="#3D3D3D" stroke-width="2.5" stroke-linecap="round" stroke-linejoin="round"/>
</svg>
